D:\school\WTK\thesis\model\3dpredictsim\Results\batch_windlass\Pog_s1_tmt_aCst_d05_k800_WL20_ig24_pas_GRF.mot
nRows=27
nColumns=19

name D:\school\WTK\thesis\model\3dpredictsim\Results\batch_windlass\Pog_s1_tmt_aCst_d05_k800_WL20_ig24_pas_GRF.mot
datacolumns 19
datarows 27
range 0.0000000000 0.2812512342
endheader
time 	ground_force_vx	ground_force_vy	ground_force_vz	ground_force_px	ground_force_py	ground_force_pz	1_ground_force_vx	1_ground_force_vy	1_ground_force_vz	1_ground_force_px	1_ground_force_py	1_ground_force_pz	ground_torque_x	ground_torque_y	ground_torque_z	1_ground_torque_x	1_ground_torque_y	1_ground_torque_z
        0.0000000000	     -124.6821065006	      113.4843677251	       42.3141544935	        0.1335785042	        0.0000000000	        0.0410553174	       82.9207046840	      391.6749120886	       -6.3455397287	       -0.3397523563	        0.0000000000	       -0.0347411358	        0.0000000000	        0.0000000000	        0.0000000000	        0.0000000000	        0.0000000000	        0.0000000000	
        0.0108173552	     -110.9431253568	      236.5109091168	       62.3418968731	        0.1457192209	        0.0000000000	        0.0412168895	       53.4529680841	      294.2282289765	      -14.0449069738	       -0.3323341115	        0.0000000000	       -0.0317475696	        0.0000000000	        0.0000000000	        0.0000000000	        0.0000000000	        0.0000000000	        0.0000000000	
        0.0216347103	      -66.0687177900	      481.9598560192	        9.7426544234	        0.1564489287	        0.0000000000	        0.0424754262	       24.6799134724	      198.6308999858	      -13.5147775379	       -0.3197632233	        0.0000000000	       -0.0255822140	        0.0000000000	        0.0000000000	        0.0000000000	        0.0000000000	        0.0000000000	        0.0000000000	
        0.0324520655	      -77.1805902172	      694.4426412332	      -10.0995865122	        0.1637423960	        0.0000000000	        0.0436602774	        7.8155700862	      152.5410734118	      -12.5827643305	       -0.3126771634	        0.0000000000	       -0.0213921571	        0.0000000000	        0.0000000000	        0.0000000000	        0.0000000000	        0.0000000000	        0.0000000000	
        0.0432694207	     -104.7079468925	      832.0359237796	      -15.7252251716	        0.1713128604	        0.0000000000	        0.0439896022	        3.8938773676	      117.7195420916	      -12.0104070353	       -0.3123957239	        0.0000000000	       -0.0214363665	        0.0000000000	        0.0000000000	        0.0000000000	        0.0000000000	        0.0000000000	        0.0000000000	
        0.0540867758	     -121.5456156976	      912.2487611329	      -15.9345424598	        0.1806197638	        0.0000000000	        0.0434755212	       -2.1839472712	       76.9437141441	      -10.8110233134	       -0.3122161254	        0.0000000000	       -0.0214947258	        0.0000000000	        0.0000000000	        0.0000000000	        0.0000000000	        0.0000000000	        0.0000000000	
        0.0649041310	     -124.2593952417	      912.1550929850	      -13.3893192842	        0.1868220438	        0.0000000000	        0.0428901818	       -9.2134530426	       30.0462688289	       -5.6478743480	       -0.3130626049	        0.0000000000	       -0.0214048339	        0.0000000000	        0.0000000000	        0.0000000000	        0.0000000000	        0.0000000000	        0.0000000000	
        0.0757214861	     -109.6594336740	      870.6577529743	      -12.3301482489	        0.1902835942	        0.0000000000	        0.0424431020	        0.1006029388	       -0.1019811238	        0.0062457965	        0.0000000000	        0.0000000000	        0.0000000000	        0.0000000000	        0.0000000000	        0.0000000000	        0.0000000000	        0.0000000000	        0.0000000000	
        0.0865388413	      -92.6111413400	      815.9433935470	      -13.1903914956	        0.1933581851	        0.0000000000	        0.0421113740	        0.0001445321	       -0.0001206848	       -0.0000032554	        0.0000000000	        0.0000000000	        0.0000000000	        0.0000000000	        0.0000000000	        0.0000000000	        0.0000000000	        0.0000000000	        0.0000000000	
        0.0973561965	      -78.1458974378	      764.8143056492	      -13.9210731574	        0.1964132604	        0.0000000000	        0.0419018879	        0.0000259266	       -0.0000186750	       -0.0000012536	        0.0000000000	        0.0000000000	        0.0000000000	        0.0000000000	        0.0000000000	        0.0000000000	        0.0000000000	        0.0000000000	        0.0000000000	
        0.1081735516	      -65.5393516700	      721.6246141802	      -14.6486598983	        0.1995294928	        0.0000000000	        0.0417896900	        0.0001276498	       -0.0000820915	       -0.0000078154	        0.0000000000	        0.0000000000	        0.0000000000	        0.0000000000	        0.0000000000	        0.0000000000	        0.0000000000	        0.0000000000	        0.0000000000	
        0.1189909068	      -54.5813011278	      685.7551546316	      -15.2216744725	        0.2028323291	        0.0000000000	        0.0417535631	        0.0029049793	       -0.0017097864	       -0.0002015272	        0.0000000000	        0.0000000000	        0.0000000000	        0.0000000000	        0.0000000000	        0.0000000000	        0.0000000000	        0.0000000000	        0.0000000000	
        0.1298082620	      -44.7961054721	      656.6277356492	      -16.3383864103	        0.2068361319	        0.0000000000	        0.0417534979	       -0.0196400841	        0.0107669423	        0.0014781029	        0.0000000000	        0.0000000000	        0.0000000000	        0.0000000000	        0.0000000000	        0.0000000000	        0.0000000000	        0.0000000000	        0.0000000000	
        0.1406256171	      -37.2264457249	      633.7381428288	      -17.5754696397	        0.2117590217	        0.0000000000	        0.0417508109	       -0.0200147326	        0.0103445026	        0.0016058195	        0.0000000000	        0.0000000000	        0.0000000000	        0.0000000000	        0.0000000000	        0.0000000000	        0.0000000000	        0.0000000000	        0.0000000000	
        0.1514429723	      -31.9754400128	      616.5740562463	      -18.4701025063	        0.2172032126	        0.0000000000	        0.0417303314	       -0.0128889137	        0.0063317992	        0.0010916435	        0.0000000000	        0.0000000000	        0.0000000000	        0.0000000000	        0.0000000000	        0.0000000000	        0.0000000000	        0.0000000000	        0.0000000000	
        0.1622603275	      -27.9204760159	      604.1301594472	      -19.0033505978	        0.2229005500	        0.0000000000	        0.0416908854	       -0.0098291810	        0.0046203587	        0.0008667695	        0.0000000000	        0.0000000000	        0.0000000000	        0.0000000000	        0.0000000000	        0.0000000000	        0.0000000000	        0.0000000000	        0.0000000000	
        0.1730776826	      -24.6116761958	      595.3218040796	      -19.1823967856	        0.2287633474	        0.0000000000	        0.0416298100	       -0.0097635157	        0.0044164410	        0.0008850827	        0.0000000000	        0.0000000000	        0.0000000000	        0.0000000000	        0.0000000000	        0.0000000000	        0.0000000000	        0.0000000000	        0.0000000000	
        0.1838950378	      -22.1365862487	      589.1266869219	      -18.9665371760	        0.2346058785	        0.0000000000	        0.0415497554	       -0.0126283186	        0.0055218625	        0.0011610124	        0.0000000000	        0.0000000000	        0.0000000000	        0.0000000000	        0.0000000000	        0.0000000000	        0.0000000000	        0.0000000000	        0.0000000000	
        0.1947123929	      -20.6227383036	      585.3888437904	      -18.6286095077	        0.2403746812	        0.0000000000	        0.0414509021	       -0.0202980461	        0.0086131881	        0.0018740686	        0.0000000000	        0.0000000000	        0.0000000000	        0.0000000000	        0.0000000000	        0.0000000000	        0.0000000000	        0.0000000000	        0.0000000000	
        0.2055297481	      -19.4977569599	      583.3959703544	      -18.2343472401	        0.2460118854	        0.0000000000	        0.0413366340	       -0.0378336121	        0.0156370626	        0.0034861585	        0.0000000000	        0.0000000000	        0.0000000000	        0.0000000000	        0.0000000000	        0.0000000000	        0.0000000000	        0.0000000000	        0.0000000000	
        0.2163471033	      -18.3139775060	      581.6713551957	      -17.7944531858	        0.2514303719	        0.0000000000	        0.0412151969	       -0.0756569612	        0.0305669419	        0.0069259122	        0.0000000000	        0.0000000000	        0.0000000000	        0.0000000000	        0.0000000000	        0.0000000000	        0.0000000000	        0.0000000000	        0.0000000000	
        0.2271644584	      -16.6225838012	      579.3281423556	      -17.7059599158	        0.2566582111	        0.0000000000	        0.0410868724	       -0.1509986872	        0.0598439574	        0.0136936408	        0.0000000000	        0.0000000000	        0.0000000000	        0.0000000000	        0.0000000000	        0.0000000000	        0.0000000000	        0.0000000000	        0.0000000000	
        0.2379818136	      -14.5026858407	      575.6288788255	      -17.6029123707	        0.2616771980	        0.0000000000	        0.0409584056	       -0.2841182194	        0.1108336102	        0.0254925484	        0.0000000000	        0.0000000000	        0.0000000000	        0.0000000000	        0.0000000000	        0.0000000000	        0.0000000000	        0.0000000000	        0.0000000000	
        0.2487991688	      -12.0672955705	      571.0717814531	      -17.5650938270	        0.2666300296	        0.0000000000	        0.0408173634	       -0.4831169017	        0.1861277640	        0.0428192308	        0.0000000000	        0.0000000000	        0.0000000000	        0.0000000000	        0.0000000000	        0.0000000000	        0.0000000000	        0.0000000000	        0.0000000000	
        0.2596165239	       -9.3822582102	      565.6605557513	      -17.4580165369	        0.2715249437	        0.0000000000	        0.0406611283	       -0.7282886313	        0.2779659348	        0.0634922130	        0.0000000000	        0.0000000000	        0.0000000000	        0.0000000000	        0.0000000000	        0.0000000000	        0.0000000000	        0.0000000000	        0.0000000000	
        0.2704338791	       -6.4140987530	      559.4899123822	      -16.9485400799	        0.2763872974	        0.0000000000	        0.0404879409	       -0.9748872291	        0.3695536431	        0.0829688929	        0.0000000000	        0.0000000000	        0.0000000000	        0.0000000000	        0.0000000000	        0.0000000000	        0.0000000000	        0.0000000000	        0.0000000000	
        0.2812512342	       -2.9672499679	      552.6700351828	      -15.9377361039	        0.2812225947	        0.0000000000	        0.0402964993	       -1.1809206578	        0.4454034517	        0.0969024005	        0.0000000000	        0.0000000000	        0.0000000000	        0.0000000000	        0.0000000000	        0.0000000000	        0.0000000000	        0.0000000000	        0.0000000000	
